<?xml version="1.0" encoding="UTF-8"?>
<svg xmlns="http://www.w3.org/2000/svg" xmlns:xlink="http://www.w3.org/1999/xlink" viewBox="0 0 120 120" width="120px" height="120px">
<g id="surface286836625">
<path style=" stroke:none;fill-rule:nonzero;fill:rgb(100%,100%,100%);fill-opacity:1;" d="M 72 26.398438 C 63.355469 26.398438 55.199219 30.695312 50.398438 37.648438 L 50.398438 46.050781 L 51.148438 46.574219 L 52.050781 44.175781 C 55.40625 36.253906 63.375 31.199219 71.773438 31.199219 C 83.773438 31.199219 93.375 40.800781 93.375 52.800781 L 93.375 57.601562 L 96.976562 56.175781 C 98.652344 55.453125 100.320312 55.199219 102 55.199219 C 109.199219 55.199219 115.199219 61.199219 115.199219 68.398438 C 115.199219 75.601562 109.199219 81.601562 102 81.601562 L 50.398438 81.601562 L 50.398438 86.398438 L 102 86.398438 C 111.84375 86.398438 120 78.242188 120 68.398438 C 120 58.554688 111.84375 50.398438 102 50.398438 C 100.800781 50.398438 99.601562 50.605469 98.398438 50.851562 C 97.199219 37.171875 85.921875 26.398438 72 26.398438 Z M 40.800781 38.398438 C 39.121094 38.398438 37.445312 38.605469 36 38.851562 L 36 86.398438 L 40.800781 86.398438 Z M 43.199219 38.398438 L 43.199219 86.398438 L 48 86.398438 L 48 39.601562 C 46.554688 39.121094 44.878906 38.644531 43.199219 38.398438 Z M 33.601562 39.601562 C 31.921875 40.320312 30.242188 41.042969 28.800781 42 L 28.800781 86.398438 L 33.601562 86.398438 Z M 26.398438 43.949219 C 24.476562 45.628906 22.800781 47.773438 21.601562 50.175781 L 21.601562 86.398438 L 26.398438 86.398438 Z M 15.601562 52.800781 C 15.179688 52.828125 14.757812 52.902344 14.398438 53.023438 L 14.398438 86.175781 C 15.121094 86.417969 16.078125 86.398438 16.800781 86.398438 L 19.199219 86.398438 L 19.199219 53.023438 C 18.476562 52.78125 17.523438 52.800781 16.800781 52.800781 C 16.445312 52.800781 16.023438 52.773438 15.601562 52.800781 Z M 12 53.550781 C 10.320312 54.027344 8.644531 54.75 7.199219 55.949219 L 7.199219 83.25 C 8.644531 84.207031 10.320312 85.171875 12 85.648438 Z M 4.800781 57.824219 C 1.921875 60.945312 0 65.042969 0 69.601562 C 0 74.15625 1.921875 78.253906 4.800781 81.375 Z M 4.800781 57.824219 "/>
</g>
</svg>
